<svg width="70" height="50" viewBox="0 0 111 100"  fill="none" xmlns="http://www.w3.org/2000/svg">
<rect width="100" height="75" />
<path d="M30.4155 27.77C35.0615 27.77 39.0635 28.713 42.4215 30.599C45.8255 32.439 48.4245 35.107 50.2185 38.603C52.0125 42.099 52.9095 46.308 52.9095 51.23C52.9095 56.152 52.0125 60.361 50.2185 63.857C48.4245 67.353 45.8255 70.044 42.4215 71.93C39.0635 73.77 35.0615 74.69 30.4155 74.69C25.7695 74.69 21.7445 73.77 18.3405 71.93C14.9825 70.044 12.3835 67.353 10.5435 63.857C8.70351 60.361 7.78351 56.152 7.78351 51.23C7.78351 46.308 8.70351 42.099 10.5435 38.603C12.3835 35.107 14.9825 32.439 18.3405 30.599C21.7445 28.713 25.7695 27.77 30.4155 27.77ZM30.4155 37.844C28.3915 37.844 26.6895 38.35 25.3095 39.362C23.9295 40.328 22.8715 41.8 22.1355 43.778C21.4455 45.756 21.1005 48.24 21.1005 51.23C21.1005 54.22 21.4455 56.704 22.1355 58.682C22.8715 60.66 23.9295 62.155 25.3095 63.167C26.6895 64.133 28.3915 64.616 30.4155 64.616C32.4395 64.616 34.1185 64.133 35.4525 63.167C36.8325 62.155 37.8675 60.66 38.5575 58.682C39.2475 56.704 39.5925 54.22 39.5925 51.23C39.5925 48.24 39.2475 45.756 38.5575 43.778C37.8675 41.8 36.8325 40.328 35.4525 39.362C34.1185 38.35 32.4395 37.844 30.4155 37.844Z" fill="url(#paint0_linear_1_147)"/>
<path d="M68.4588 24.044C70.4368 24.044 72.1848 24.251 73.7028 24.665C75.2208 25.033 76.3248 25.47 77.0148 25.976L75.8418 33.773C75.3358 33.497 74.7608 33.267 74.1168 33.083C73.4728 32.899 72.6678 32.807 71.7018 32.807C70.1378 32.807 68.8498 33.152 67.8378 33.842C66.8258 34.532 66.3198 35.774 66.3198 37.568V41.915L67.0788 43.847V74H54.2448V36.809C54.2448 34.509 54.6358 32.554 55.4178 30.944C56.1998 29.288 57.2578 27.954 58.5918 26.942C59.9258 25.884 61.4438 25.148 63.1458 24.734C64.8478 24.274 66.6188 24.044 68.4588 24.044ZM76.6008 39.5V48.47H49.0008V39.5H76.6008ZM96.3348 24.044C98.3128 24.044 100.061 24.251 101.579 24.665C103.097 25.033 104.201 25.47 104.891 25.976L103.718 33.773C103.212 33.497 102.637 33.267 101.993 33.083C101.349 32.899 100.544 32.807 99.5778 32.807C98.0138 32.807 96.7258 33.152 95.7138 33.842C94.7018 34.532 94.1958 35.774 94.1958 37.568V41.915L94.9548 43.847V74H82.1208V36.809C82.1208 34.509 82.5118 32.554 83.2938 30.944C84.0758 29.288 85.1338 27.954 86.4678 26.942C87.8018 25.884 89.3198 25.148 91.0218 24.734C92.7238 24.274 94.4948 24.044 96.3348 24.044ZM104.477 39.5V48.47H76.8768V39.5H104.477Z" fill="url(#paint1_linear_1_147)"/>
<defs>
<linearGradient id="paint0_linear_1_147" x1="35.5284" y1="74.69" x2="104.891" y2="74.69" gradientUnits="userSpaceOnUse">
<stop stop-color="#420255"/>
<stop offset="1" stop-color="#F7E9F4"/>
</linearGradient>
<linearGradient id="paint1_linear_1_147" x1="35.5284" y1="74.69" x2="104.891" y2="74.69" gradientUnits="userSpaceOnUse">
<stop stop-color="#420255"/>
<stop offset="1" stop-color="#F7E9F4"/>
</linearGradient>
</defs>
</svg>
