<svg width="70" height="50" viewBox="0 0 100 100" fill="none" xmlns="http://www.w3.org/2000/svg">
<rect width="100" height="75" />
<path d="M27.6769 27.77C32.3229 27.77 36.3249 28.713 39.6829 30.599C43.0869 32.439 45.6859 35.107 47.4799 38.603C49.2739 42.099 50.1709 46.308 50.1709 51.23C50.1709 56.152 49.2739 60.361 47.4799 63.857C45.6859 67.353 43.0869 70.044 39.6829 71.93C36.3249 73.77 32.3229 74.69 27.6769 74.69C23.0309 74.69 19.0059 73.77 15.6019 71.93C12.2439 70.044 9.64492 67.353 7.80492 63.857C5.96492 60.361 5.04492 56.152 5.04492 51.23C5.04492 46.308 5.96492 42.099 7.80492 38.603C9.64492 35.107 12.2439 32.439 15.6019 30.599C19.0059 28.713 23.0309 27.77 27.6769 27.77ZM27.6769 37.844C25.6529 37.844 23.9509 38.35 22.5709 39.362C21.1909 40.328 20.1329 41.8 19.3969 43.778C18.7069 45.756 18.3619 48.24 18.3619 51.23C18.3619 54.22 18.7069 56.704 19.3969 58.682C20.1329 60.66 21.1909 62.155 22.5709 63.167C23.9509 64.133 25.6529 64.616 27.6769 64.616C29.7009 64.616 31.3799 64.133 32.7139 63.167C34.0939 62.155 35.1289 60.66 35.8189 58.682C36.5089 56.704 36.8539 54.22 36.8539 51.23C36.8539 48.24 36.5089 45.756 35.8189 43.778C35.1289 41.8 34.0939 40.328 32.7139 39.362C31.3799 38.35 29.7009 37.844 27.6769 37.844Z" fill="url(#paint0_linear_1_137)"/>
<path d="M94.0792 28.46V74H79.7962L66.5482 50.402L63.3742 43.985H63.2362L63.5122 52.61V74H52.1272V28.46H66.4102L79.6582 52.058L82.9012 58.544H82.9702L82.6942 49.85V28.46H94.0792Z" fill="url(#paint1_linear_1_137)"/>
<defs>
<linearGradient id="paint0_linear_1_137" x1="30.4833" y1="74.69" x2="94.0792" y2="74.69" gradientUnits="userSpaceOnUse">
<stop stop-color="#420255"/>
<stop offset="1" stop-color="#F7E9F4"/>
</linearGradient>
<linearGradient id="paint1_linear_1_137" x1="30.4833" y1="74.69" x2="94.0792" y2="74.69" gradientUnits="userSpaceOnUse">
<stop stop-color="#420255"/>
<stop offset="1" stop-color="#F7E9F4"/>
</linearGradient>
</defs>
</svg>
